<?xml version="1.0" encoding="utf-8"?>
<svg width="152px" height="262px" viewBox="0 0 152 262" version="1.1" xmlns:xlink="http://www.w3.org/1999/xlink" xmlns="http://www.w3.org/2000/svg">
  <desc>Created with Lunacy</desc>
  <g id="Group" transform="translate(0.5 0.5)">
    <path d="M0 0L32 0L32 190L0 190L0 0Z" transform="translate(22 71)" id="Rectangle" fill="#FFA500" fill-rule="evenodd" stroke="none" />
    <path d="M0 0L32 0L32 190L0 190L0 0Z" transform="translate(110 71)" id="Rectangle-Copy" fill="#D3D3D3" fill-rule="evenodd" stroke="none" />
    <path d="M0 0L120 0L120 30L0 30L0 0Z" transform="translate(21.999893 109)" id="Rectangle-2" fill="#D3D3D3" fill-rule="evenodd" stroke="none" />
    <path d="M0 0L120 0L120 30L0 30L0 0Z" transform="translate(22.000046 139)" id="Rectangle-2-Copy" fill="#FFA500" fill-rule="evenodd" stroke="none" />
    <path d="M0 25C0 11.1929 11.1929 0 25 0C38.8071 0 50 11.1929 50 25C50 38.8071 38.8071 50 25 50C11.1929 50 0 38.8071 0 25Z" transform="translate(13 5)" id="Ellipse" fill="#FFA500" fill-rule="evenodd" stroke="none" />
    <path d="M0 25C0 11.1929 11.1929 0 25 0C38.8071 0 50 11.1929 50 25C50 38.8071 38.8071 50 25 50C11.1929 50 0 38.8071 0 25Z" transform="translate(101 5)" id="Ellipse-Copy" fill="#D3D3D3" fill-rule="evenodd" stroke="none" />
  </g>
</svg>